<mxfile host="65bd71144e">
    <diagram id="gllkkhzi5F8fJb15dKZG" name="Page-1">
        <mxGraphModel dx="6063" dy="5800" grid="1" gridSize="10" guides="1" tooltips="1" connect="1" arrows="1" fold="1" page="1" pageScale="1" pageWidth="850" pageHeight="1100" math="0" shadow="0">
            <root>
                <mxCell id="0"/>
                <mxCell id="1" parent="0"/>
                <mxCell id="2" value="" style="rounded=0;whiteSpace=wrap;html=1;strokeColor=#FFFFFF;fillColor=#FFFFFF;gradientColor=default;" vertex="1" parent="1">
                    <mxGeometry x="-850" y="-1500" width="4030" height="3030" as="geometry"/>
                </mxCell>
                <mxCell id="3" value="" style="rounded=0;whiteSpace=wrap;html=1;strokeColor=#000000;fillColor=#FFFFFF;gradientColor=default;strokeWidth=3;movable=0;resizable=0;rotatable=0;deletable=0;editable=0;connectable=0;" vertex="1" parent="1">
                    <mxGeometry x="-730" y="-1320" width="3840" height="2790" as="geometry"/>
                </mxCell>
                <mxCell id="4" value="" style="endArrow=none;html=1;entryX=0.325;entryY=-0.002;entryDx=0;entryDy=0;entryPerimeter=0;exitX=0.326;exitY=1.007;exitDx=0;exitDy=0;exitPerimeter=0;strokeColor=#000000;strokeWidth=3;movable=0;resizable=0;rotatable=0;deletable=0;editable=0;connectable=0;" edge="1" parent="1" source="3" target="3">
                    <mxGeometry width="50" height="50" relative="1" as="geometry">
                        <mxPoint x="1150" y="-130" as="sourcePoint"/>
                        <mxPoint x="1200" y="-180" as="targetPoint"/>
                    </mxGeometry>
                </mxCell>
                <mxCell id="5" value="" style="endArrow=none;html=1;strokeColor=#000000;entryX=0.663;entryY=0;entryDx=0;entryDy=0;entryPerimeter=0;exitX=0.667;exitY=1.005;exitDx=0;exitDy=0;exitPerimeter=0;strokeWidth=3;movable=0;resizable=0;rotatable=0;deletable=0;editable=0;connectable=0;" edge="1" parent="1" source="3" target="3">
                    <mxGeometry width="50" height="50" relative="1" as="geometry">
                        <mxPoint x="1990" y="-150" as="sourcePoint"/>
                        <mxPoint x="2040" y="-200" as="targetPoint"/>
                    </mxGeometry>
                </mxCell>
                <mxCell id="6" value="" style="endArrow=none;html=1;strokeColor=#000000;strokeWidth=3;movable=0;resizable=0;rotatable=0;deletable=0;editable=0;connectable=0;" edge="1" parent="1">
                    <mxGeometry width="50" height="50" relative="1" as="geometry">
                        <mxPoint x="-720" y="-1150" as="sourcePoint"/>
                        <mxPoint x="3120" y="-1150" as="targetPoint"/>
                    </mxGeometry>
                </mxCell>
                <mxCell id="7" value="Text" style="text;strokeColor=none;align=center;fillColor=none;html=1;verticalAlign=middle;whiteSpace=wrap;rounded=0;strokeWidth=3;" vertex="1" parent="1">
                    <mxGeometry x="1630" y="-70" width="60" height="490" as="geometry"/>
                </mxCell>
                <mxCell id="8" value="&lt;b&gt;&lt;font style=&quot;background-color: rgb(255, 255, 255); font-size: 57px;&quot; color=&quot;#030303&quot;&gt;Người dân&lt;/font&gt;&lt;/b&gt;" style="text;strokeColor=none;align=center;fillColor=none;html=1;verticalAlign=middle;whiteSpace=wrap;rounded=0;strokeWidth=3;" vertex="1" parent="1">
                    <mxGeometry x="-620" y="-1300" width="860" height="140" as="geometry"/>
                </mxCell>
                <mxCell id="9" value="&lt;b&gt;&lt;font style=&quot;background-color: rgb(255, 255, 255); font-size: 57px;&quot; color=&quot;#030303&quot;&gt;Cán bộ xử lý&lt;/font&gt;&lt;/b&gt;" style="text;strokeColor=none;align=center;fillColor=none;html=1;verticalAlign=middle;whiteSpace=wrap;rounded=0;strokeWidth=3;" vertex="1" parent="1">
                    <mxGeometry x="735" y="-1300" width="860" height="140" as="geometry"/>
                </mxCell>
                <mxCell id="10" value="&lt;b&gt;&lt;font style=&quot;background-color: rgb(255, 255, 255); font-size: 57px;&quot; color=&quot;#030303&quot;&gt;Cơ quan cấp cao&lt;/font&gt;&lt;/b&gt;" style="text;strokeColor=none;align=center;fillColor=none;html=1;verticalAlign=middle;whiteSpace=wrap;rounded=0;strokeWidth=3;" vertex="1" parent="1">
                    <mxGeometry x="2060" y="-1300" width="860" height="140" as="geometry"/>
                </mxCell>
                <mxCell id="11" value="" style="ellipse;whiteSpace=wrap;html=1;aspect=fixed;labelBackgroundColor=#FFFFFF;strokeColor=#000000;strokeWidth=3;fontSize=57;fontColor=#030303;fillColor=#000000;gradientColor=#000000;" vertex="1" parent="1">
                    <mxGeometry x="-195" y="-1120" width="150" height="150" as="geometry"/>
                </mxCell>
                <mxCell id="12" value="" style="rounded=1;whiteSpace=wrap;html=1;labelBackgroundColor=#FFFFFF;strokeColor=#000000;strokeWidth=3;fontSize=57;fontColor=#030303;fillColor=#FFFFFF;gradientColor=#FFFFFF;" vertex="1" parent="1">
                    <mxGeometry x="-480" y="-705" width="720" height="155" as="geometry"/>
                </mxCell>
                <mxCell id="13" value="&lt;font style=&quot;background-color: rgb(255, 255, 255);&quot; color=&quot;#000000&quot;&gt;&lt;b&gt;UC2: Tố cáo vi phạm&lt;/b&gt;&lt;/font&gt;" style="text;strokeColor=none;align=center;fillColor=none;html=1;verticalAlign=middle;whiteSpace=wrap;rounded=0;labelBackgroundColor=#FFFFFF;strokeWidth=3;fontSize=57;fontColor=#030303;" vertex="1" parent="1">
                    <mxGeometry x="800" y="-1450" width="717.5" height="110" as="geometry"/>
                </mxCell>
                <mxCell id="14" value="Xác nhận số tiền cần chuyển" style="text;strokeColor=none;align=center;fillColor=none;html=1;verticalAlign=middle;whiteSpace=wrap;rounded=0;labelBackgroundColor=#FFFFFF;strokeWidth=3;fontSize=57;fontColor=#000000;" vertex="1" parent="1">
                    <mxGeometry x="-360" y="-710" width="480" height="160" as="geometry"/>
                </mxCell>
                <mxCell id="23" value="" style="ellipse;whiteSpace=wrap;html=1;aspect=fixed;labelBackgroundColor=#FFFFFF;strokeColor=#000000;strokeWidth=3;fontSize=57;fontColor=#000000;fillColor=#FFFFFF;gradientColor=#FFFFFF;movable=1;resizable=1;rotatable=1;deletable=1;editable=1;connectable=1;" vertex="1" parent="1">
                    <mxGeometry x="-210" y="1220" width="190" height="190" as="geometry"/>
                </mxCell>
                <mxCell id="24" value="" style="ellipse;whiteSpace=wrap;html=1;aspect=fixed;labelBackgroundColor=#FFFFFF;strokeColor=#000000;strokeWidth=3;fontSize=57;fontColor=#030303;fillColor=#000000;gradientColor=#000000;movable=1;resizable=1;rotatable=1;deletable=1;editable=1;connectable=1;" vertex="1" parent="1">
                    <mxGeometry x="-195" y="1240" width="150" height="150" as="geometry"/>
                </mxCell>
                <mxCell id="25" value="" style="endArrow=classic;html=1;strokeColor=#000000;strokeWidth=3;fontSize=57;fontColor=#000000;exitX=0.5;exitY=1;exitDx=0;exitDy=0;entryX=0.5;entryY=0;entryDx=0;entryDy=0;" edge="1" parent="1" source="11" target="14">
                    <mxGeometry width="50" height="50" relative="1" as="geometry">
                        <mxPoint x="880" y="-320" as="sourcePoint"/>
                        <mxPoint x="1690" y="-340" as="targetPoint"/>
                    </mxGeometry>
                </mxCell>
                <mxCell id="27" value="Tiến hành chuyển tiền" style="text;strokeColor=none;align=center;fillColor=none;html=1;verticalAlign=middle;whiteSpace=wrap;rounded=0;labelBackgroundColor=#FFFFFF;strokeWidth=3;fontSize=57;fontColor=#000000;" vertex="1" parent="1">
                    <mxGeometry x="-20" y="-500" width="380" height="130" as="geometry"/>
                </mxCell>
                <mxCell id="28" value="Đăng ký tài khoản NH" style="rounded=1;whiteSpace=wrap;html=1;labelBackgroundColor=#FFFFFF;strokeColor=#000000;strokeWidth=3;fontSize=57;fontColor=#030303;fillColor=#FFFFFF;gradientColor=#FFFFFF;" vertex="1" parent="1">
                    <mxGeometry x="-670" y="60" width="410" height="155" as="geometry"/>
                </mxCell>
                <mxCell id="30" style="edgeStyle=none;html=1;" edge="1" parent="1" source="31">
                    <mxGeometry relative="1" as="geometry">
                        <mxPoint x="870" y="300" as="targetPoint"/>
                    </mxGeometry>
                </mxCell>
                <mxCell id="31" value="Text" style="text;html=1;align=center;verticalAlign=middle;resizable=0;points=[];autosize=1;strokeColor=none;fillColor=none;" vertex="1" parent="1">
                    <mxGeometry x="1030" y="230" width="50" height="30" as="geometry"/>
                </mxCell>
                <mxCell id="33" value="Text" style="text;html=1;strokeColor=none;fillColor=none;align=center;verticalAlign=middle;whiteSpace=wrap;rounded=0;" vertex="1" parent="1">
                    <mxGeometry x="1230" y="-40" width="60" height="30" as="geometry"/>
                </mxCell>
                <mxCell id="37" value="" style="rhombus;whiteSpace=wrap;html=1;strokeColor=#121212;fillColor=none;strokeWidth=3;" vertex="1" parent="1">
                    <mxGeometry x="-225" y="-340" width="210" height="280" as="geometry"/>
                </mxCell>
                <mxCell id="38" value="" style="endArrow=classic;html=1;exitX=0.5;exitY=1;exitDx=0;exitDy=0;entryX=0.5;entryY=0;entryDx=0;entryDy=0;strokeColor=#000000;strokeWidth=3;" edge="1" parent="1" source="14" target="37">
                    <mxGeometry width="50" height="50" relative="1" as="geometry">
                        <mxPoint x="760" y="-140" as="sourcePoint"/>
                        <mxPoint x="1030" y="-320" as="targetPoint"/>
                    </mxGeometry>
                </mxCell>
                <mxCell id="39" value="Chuyển tiền" style="rounded=1;whiteSpace=wrap;html=1;labelBackgroundColor=#FFFFFF;strokeColor=#000000;strokeWidth=3;fontSize=57;fontColor=#030303;fillColor=#FFFFFF;gradientColor=#FFFFFF;" vertex="1" parent="1">
                    <mxGeometry x="-10" y="60" width="505" height="155" as="geometry"/>
                </mxCell>
                <mxCell id="40" value="" style="endArrow=classic;html=1;strokeColor=#000000;strokeWidth=3;exitX=0;exitY=0.5;exitDx=0;exitDy=0;entryX=0.5;entryY=0;entryDx=0;entryDy=0;" edge="1" parent="1" source="37" target="28">
                    <mxGeometry width="50" height="50" relative="1" as="geometry">
                        <mxPoint x="980" y="-300" as="sourcePoint"/>
                        <mxPoint x="1030" y="-350" as="targetPoint"/>
                        <Array as="points">
                            <mxPoint x="-465" y="-200"/>
                        </Array>
                    </mxGeometry>
                </mxCell>
                <mxCell id="41" value="" style="endArrow=classic;html=1;strokeColor=#000000;strokeWidth=3;exitX=1;exitY=0.5;exitDx=0;exitDy=0;entryX=0.5;entryY=0;entryDx=0;entryDy=0;" edge="1" parent="1" source="37" target="39">
                    <mxGeometry width="50" height="50" relative="1" as="geometry">
                        <mxPoint x="980" y="-300" as="sourcePoint"/>
                        <mxPoint x="1030" y="-350" as="targetPoint"/>
                        <Array as="points">
                            <mxPoint x="243" y="-200"/>
                        </Array>
                    </mxGeometry>
                </mxCell>
                <mxCell id="42" value="" style="endArrow=classic;html=1;strokeColor=#000000;strokeWidth=3;exitX=1;exitY=0.5;exitDx=0;exitDy=0;entryX=0;entryY=0.5;entryDx=0;entryDy=0;" edge="1" parent="1" source="28" target="39">
                    <mxGeometry width="50" height="50" relative="1" as="geometry">
                        <mxPoint x="980" y="370" as="sourcePoint"/>
                        <mxPoint x="1030" y="320" as="targetPoint"/>
                    </mxGeometry>
                </mxCell>
                <mxCell id="43" value="&lt;font color=&quot;#030303&quot; style=&quot;font-size: 50px;&quot;&gt;Đã có tài khoản&lt;/font&gt;" style="text;html=1;strokeColor=none;fillColor=none;align=center;verticalAlign=middle;whiteSpace=wrap;rounded=0;strokeWidth=3;" vertex="1" parent="1">
                    <mxGeometry x="10" y="-330" width="360" height="120" as="geometry"/>
                </mxCell>
                <mxCell id="45" value="&lt;font color=&quot;#030303&quot; style=&quot;font-size: 50px;&quot;&gt;Chưa đăng ký TKNH&lt;/font&gt;" style="text;html=1;strokeColor=none;fillColor=none;align=center;verticalAlign=middle;whiteSpace=wrap;rounded=0;strokeWidth=3;" vertex="1" parent="1">
                    <mxGeometry x="-605" y="-320" width="360" height="120" as="geometry"/>
                </mxCell>
                <mxCell id="46" value="" style="rhombus;whiteSpace=wrap;html=1;strokeColor=#121212;fillColor=none;strokeWidth=3;" vertex="1" parent="1">
                    <mxGeometry x="137.5" y="430" width="210" height="280" as="geometry"/>
                </mxCell>
                <mxCell id="48" value="" style="endArrow=classic;html=1;strokeColor=#000000;strokeWidth=3;fontSize=50;fontColor=#030303;exitX=0;exitY=0.5;exitDx=0;exitDy=0;entryX=0.5;entryY=0;entryDx=0;entryDy=0;" edge="1" parent="1" source="46" target="23">
                    <mxGeometry width="50" height="50" relative="1" as="geometry">
                        <mxPoint x="980" y="310" as="sourcePoint"/>
                        <mxPoint x="1030" y="260" as="targetPoint"/>
                        <Array as="points">
                            <mxPoint x="-115" y="570"/>
                        </Array>
                    </mxGeometry>
                </mxCell>
                <mxCell id="49" value="" style="endArrow=none;html=1;strokeColor=#000000;strokeWidth=3;fontSize=50;fontColor=#030303;exitX=0.5;exitY=0;exitDx=0;exitDy=0;entryX=0.5;entryY=1;entryDx=0;entryDy=0;" edge="1" parent="1" source="46" target="39">
                    <mxGeometry width="50" height="50" relative="1" as="geometry">
                        <mxPoint x="980" y="310" as="sourcePoint"/>
                        <mxPoint x="1030" y="260" as="targetPoint"/>
                    </mxGeometry>
                </mxCell>
                <mxCell id="50" value="&lt;font color=&quot;#030303&quot; style=&quot;font-size: 50px;&quot;&gt;Thành công&lt;/font&gt;" style="text;html=1;strokeColor=none;fillColor=none;align=center;verticalAlign=middle;whiteSpace=wrap;rounded=0;strokeWidth=3;" vertex="1" parent="1">
                    <mxGeometry x="-200" y="460" width="360" height="80" as="geometry"/>
                </mxCell>
                <mxCell id="51" value="" style="endArrow=classic;html=1;strokeColor=#000000;strokeWidth=3;fontSize=50;fontColor=#030303;exitX=1;exitY=0.5;exitDx=0;exitDy=0;entryX=1;entryY=0.25;entryDx=0;entryDy=0;" edge="1" parent="1" source="46" target="39">
                    <mxGeometry width="50" height="50" relative="1" as="geometry">
                        <mxPoint x="980" y="340" as="sourcePoint"/>
                        <mxPoint x="1030" y="290" as="targetPoint"/>
                        <Array as="points">
                            <mxPoint x="770" y="570"/>
                            <mxPoint x="770" y="99"/>
                        </Array>
                    </mxGeometry>
                </mxCell>
                <mxCell id="52" value="&lt;font color=&quot;#030303&quot; style=&quot;font-size: 50px;&quot;&gt;Thất bại&lt;/font&gt;" style="text;html=1;strokeColor=none;fillColor=none;align=center;verticalAlign=middle;whiteSpace=wrap;rounded=0;strokeWidth=3;" vertex="1" parent="1">
                    <mxGeometry x="410" y="450" width="360" height="80" as="geometry"/>
                </mxCell>
            </root>
        </mxGraphModel>
    </diagram>
</mxfile>